<svg id="visual" viewBox="0 0 900 600" width="900" height="600" xmlns="http://www.w3.org/2000/svg" xmlns:xlink="http://www.w3.org/1999/xlink" version="1.1"><path d="M0 395L21.5 404.7C43 414.3 86 433.7 128.8 445C171.7 456.3 214.3 459.7 257.2 456.5C300 453.3 343 443.7 385.8 432.3C428.7 421 471.3 408 514.2 412.3C557 416.7 600 438.3 642.8 436.8C685.7 435.3 728.3 410.7 771.2 397.8C814 385 857 384 878.5 383.5L900 383L900 601L878.5 601C857 601 814 601 771.2 601C728.3 601 685.7 601 642.8 601C600 601 557 601 514.2 601C471.3 601 428.7 601 385.8 601C343 601 300 601 257.2 601C214.3 601 171.7 601 128.8 601C86 601 43 601 21.5 601L0 601Z" fill="#8c7bff"></path><path d="M0 492L21.5 482.3C43 472.7 86 453.3 128.8 441.8C171.7 430.3 214.3 426.7 257.2 434C300 441.3 343 459.7 385.8 455.7C428.7 451.7 471.3 425.3 514.2 411C557 396.7 600 394.3 642.8 402C685.7 409.7 728.3 427.3 771.2 435.8C814 444.3 857 443.7 878.5 443.3L900 443L900 601L878.5 601C857 601 814 601 771.2 601C728.3 601 685.7 601 642.8 601C600 601 557 601 514.2 601C471.3 601 428.7 601 385.8 601C343 601 300 601 257.2 601C214.3 601 171.7 601 128.8 601C86 601 43 601 21.5 601L0 601Z" fill="#7b6af1"></path><path d="M0 443L21.5 448.3C43 453.7 86 464.3 128.8 467.8C171.7 471.3 214.3 467.7 257.2 473.2C300 478.7 343 493.3 385.8 495.2C428.7 497 471.3 486 514.2 474C557 462 600 449 642.8 457.3C685.7 465.7 728.3 495.3 771.2 498.8C814 502.3 857 479.7 878.5 468.3L900 457L900 601L878.5 601C857 601 814 601 771.2 601C728.3 601 685.7 601 642.8 601C600 601 557 601 514.2 601C471.3 601 428.7 601 385.8 601C343 601 300 601 257.2 601C214.3 601 171.7 601 128.8 601C86 601 43 601 21.5 601L0 601Z" fill="#6959e4"></path><path d="M0 550L21.5 539.8C43 529.7 86 509.3 128.8 506.2C171.7 503 214.3 517 257.2 520.2C300 523.3 343 515.7 385.8 508.7C428.7 501.7 471.3 495.3 514.2 502.7C557 510 600 531 642.8 532.8C685.7 534.7 728.3 517.3 771.2 509C814 500.7 857 501.3 878.5 501.7L900 502L900 601L878.5 601C857 601 814 601 771.2 601C728.3 601 685.7 601 642.8 601C600 601 557 601 514.2 601C471.3 601 428.7 601 385.8 601C343 601 300 601 257.2 601C214.3 601 171.7 601 128.8 601C86 601 43 601 21.5 601L0 601Z" fill="#5748d7"></path><path d="M0 575L21.5 574.5C43 574 86 573 128.8 566.3C171.7 559.7 214.3 547.3 257.2 544.8C300 542.3 343 549.7 385.8 547.8C428.7 546 471.3 535 514.2 532.8C557 530.7 600 537.3 642.8 546.5C685.7 555.7 728.3 567.3 771.2 564.5C814 561.7 857 544.3 878.5 535.7L900 527L900 601L878.5 601C857 601 814 601 771.2 601C728.3 601 685.7 601 642.8 601C600 601 557 601 514.2 601C471.3 601 428.7 601 385.8 601C343 601 300 601 257.2 601C214.3 601 171.7 601 128.8 601C86 601 43 601 21.5 601L0 601Z" fill="#4338ca"></path></svg>