<svg id="visual" viewBox="0 0 960 540" width="960" height="540" xmlns="http://www.w3.org/2000/svg" xmlns:xlink="http://www.w3.org/1999/xlink" version="1.1"><path d="M0 173L22.8 190.3C45.7 207.7 91.3 242.3 137 262.7C182.7 283 228.3 289 274 283.3C319.7 277.7 365.3 260.3 411.2 239.8C457 219.3 503 195.7 548.8 203.2C594.7 210.7 640.3 249.3 686 246.7C731.7 244 777.3 200 823 177.2C868.7 154.3 914.3 152.7 937.2 151.8L960 151L960 541L937.2 541C914.3 541 868.7 541 823 541C777.3 541 731.7 541 686 541C640.3 541 594.7 541 548.8 541C503 541 457 541 411.2 541C365.3 541 319.7 541 274 541C228.3 541 182.7 541 137 541C91.3 541 45.7 541 22.8 541L0 541Z" fill="#8c7bff"></path><path d="M0 346L22.8 328.5C45.7 311 91.3 276 137 255.3C182.7 234.7 228.3 228.3 274 241.5C319.7 254.7 365.3 287.3 411.2 280.2C457 273 503 226 548.8 200.5C594.7 175 640.3 171 686 184.7C731.7 198.3 777.3 229.7 823 244.8C868.7 260 914.3 259 937.2 258.5L960 258L960 541L937.2 541C914.3 541 868.7 541 823 541C777.3 541 731.7 541 686 541C640.3 541 594.7 541 548.8 541C503 541 457 541 411.2 541C365.3 541 319.7 541 274 541C228.3 541 182.7 541 137 541C91.3 541 45.7 541 22.8 541L0 541Z" fill="#7b6af1"></path><path d="M0 258L22.8 267.8C45.7 277.7 91.3 297.3 137 303.8C182.7 310.3 228.3 303.7 274 313.5C319.7 323.3 365.3 349.7 411.2 352.7C457 355.7 503 335.3 548.8 313.7C594.7 292 640.3 269 686 284.2C731.7 299.3 777.3 352.7 823 358.8C868.7 365 914.3 324 937.2 303.5L960 283L960 541L937.2 541C914.3 541 868.7 541 823 541C777.3 541 731.7 541 686 541C640.3 541 594.7 541 548.8 541C503 541 457 541 411.2 541C365.3 541 319.7 541 274 541C228.3 541 182.7 541 137 541C91.3 541 45.7 541 22.8 541L0 541Z" fill="#6959e4"></path><path d="M0 451L22.8 432.5C45.7 414 91.3 377 137 371.3C182.7 365.7 228.3 391.3 274 397.2C319.7 403 365.3 389 411.2 376.5C457 364 503 353 548.8 366.2C594.7 379.3 640.3 416.7 686 419.7C731.7 422.7 777.3 391.3 823 376.3C868.7 361.3 914.3 362.7 937.2 363.3L960 364L960 541L937.2 541C914.3 541 868.7 541 823 541C777.3 541 731.7 541 686 541C640.3 541 594.7 541 548.8 541C503 541 457 541 411.2 541C365.3 541 319.7 541 274 541C228.3 541 182.7 541 137 541C91.3 541 45.7 541 22.8 541L0 541Z" fill="#5748d7"></path><path d="M0 496L22.8 495.2C45.7 494.3 91.3 492.7 137 480.8C182.7 469 228.3 447 274 442.3C319.7 437.7 365.3 450.3 411.2 446.8C457 443.3 503 423.7 548.8 419.8C594.7 416 640.3 428 686 444.3C731.7 460.7 777.3 481.3 823 476.2C868.7 471 914.3 440 937.2 424.5L960 409L960 541L937.2 541C914.3 541 868.7 541 823 541C777.3 541 731.7 541 686 541C640.3 541 594.7 541 548.8 541C503 541 457 541 411.2 541C365.3 541 319.7 541 274 541C228.3 541 182.7 541 137 541C91.3 541 45.7 541 22.8 541L0 541Z" fill="#4338ca"></path></svg>